<svg xmlns="http://www.w3.org/2000/svg" width="215.8" height="85.8">
    <title>Southern Tier AIDS Program Logo</title>
    <g fill="#D2242B">
        <path d="M10.6,8.4c-0.3-2.9-1-3.9-2.8-3.9c-1.6,0-2.7,1.2-2.7,3.2c0,2.2,0.9,3.5,4.3,6.7c5,4.6,6.2,6.6,6.2,10.5 c0,4.9-3.1,8.2-7.6,8.2c-4.7,0-7.8-3.4-8-8.6l4.6-0.8c0.1,3.4,1.2,5,3.4,5c1.8,0,2.9-1.3,2.9-3.5c0-1.2-0.4-2.4-1.2-3.5 c-0.8-1-1.1-1.3-3.7-3.8c-4-3.7-5.5-6.3-5.5-9.8C0.4,3.2,3.5,0,8,0c4.2,0,6.7,2.6,7.2,7.7L10.6,8.4z"/>
        <path d="M34.1,22.1c0,4.8-0.4,6.5-1.9,8.4C30.9,32,28.8,33,26.6,33c-2.3,0-4.3-1-5.6-2.5c-1.5-1.9-1.9-3.6-1.9-8.4 V10.9c0-4.7,0.4-6.5,1.9-8.4C22.3,1,24.4,0,26.6,0c2.2,0,4.3,1,5.6,2.5c1.5,1.9,1.9,3.6,1.9,8.4V22.1z M23.9,21.6 c0,3,0.1,4.5,0.3,5.1c0.4,1.2,1.2,1.8,2.4,1.8c1.2,0,2.1-0.8,2.4-2.1c0.1-0.6,0.2-2.2,0.2-4.8V11.4c0-3.1-0.1-4.5-0.3-5.1 c-0.4-1.2-1.2-1.8-2.4-1.8c-1.2,0-2.2,0.8-2.5,2.1c-0.1,0.6-0.2,2.3-0.2,4.8V21.6z"/>
        <path d="M53.3,0.5v21.6c0,4.8-0.4,6.5-1.9,8.4C50.1,32,48,33,45.8,33c-2.3,0-4.3-1-5.6-2.5 c-1.5-1.9-1.9-3.6-1.9-8.4V0.5h4.8v21.1c0,3,0.1,4.5,0.3,5.1c0.4,1.2,1.2,1.8,2.4,1.8c1.2,0,2.1-0.8,2.4-2.1 c0.1-0.6,0.2-2.2,0.2-4.8V0.5H53.3z"/>
        <path d="M66.4,32.5h-4.8V4.9h-5.1V0.5h15.1v4.5h-5.2V32.5z"/>
        <path d="M79.6,18v14.4h-4.8v-32h4.8v13.1H85V0.5h4.8v32H85V18H79.6z"/>
        <path d="M107.1,4.9h-8.3v8.7h6v4.5h-6V28h8.3v4.5H94v-32h13.1V4.9z"/>
        <path d="M115.5,32.5h-4.8v-32h6.7c5.6,0,8,2.9,8,9.3c0,4.1-0.9,6.3-3.2,8.1l3.7,14.7h-5.1l-3-13.4h-2.3V32.5z M117.1,14.6c1.6,0,2.3-0.2,2.8-1c0.5-0.8,0.8-2.2,0.8-3.8c0-1.7-0.3-3.3-1-4c-0.5-0.7-1.1-0.9-2.6-0.9h-1.5v9.7H117.1z"/>
        <path d="M141.1,32.5l-7-19.8v19.8h-4.5v-32h4.8l6.6,19v-19h4.5v32H141.1z"/>
        <path d="M166.4,32.5h-4.8V4.9h-5.1V0.5h15.1v4.5h-5.2V32.5z"/>
        <path d="M179.6,32.5h-4.8v-32h4.8V32.5z"/>
        <path d="M196.9,4.9h-8.3v8.7h6v4.5h-6V28h8.3v4.5h-13.1v-32h13.1V4.9z"/>
        <path d="M205.3,32.5h-4.8v-32h6.7c5.6,0,8,2.9,8,9.3c0,4.1-0.9,6.3-3.2,8.1l3.7,14.7h-5.1l-3-13.4h-2.3V32.5z M206.9,14.6c1.6,0,2.3-0.2,2.8-1c0.5-0.8,0.8-2.2,0.8-3.8c0-1.7-0.3-3.3-1-4c-0.5-0.7-1.1-0.9-2.6-0.9h-1.5v9.7H206.9z"/>
        <path d="M8.5,78.2l-1.1,7.1H2.7l5.2-32h6.2l5.6,32h-4.9l-1.1-7.1H8.5z M11,61L9.2,73.8h3.7L11,61z"/>
        <path d="M27.8,85.3H23v-32h4.8V85.3z"/>
        <path d="M32,53.3h6.8c5.5,0,8.1,2.9,8.1,9v14c0,6.1-2.6,9-8.1,9H32V53.3z M38.3,80.8c1.3,0,2.4-0.4,3-1.2 c0.6-0.9,0.8-1.8,0.8-4.2V63.2c0-2.4-0.2-3.4-0.8-4.2c-0.6-0.8-1.7-1.2-3-1.2h-1.5v23.1H38.3z"/>
        <path d="M60.6,61.2c-0.3-2.9-1-3.9-2.8-3.9c-1.6,0-2.7,1.2-2.7,3.2c0,2.2,0.9,3.5,4.3,6.7c5,4.6,6.2,6.6,6.2,10.5 c0,4.9-3.1,8.2-7.6,8.2c-4.7,0-7.8-3.4-8-8.6l4.6-0.8c0.1,3.4,1.2,5,3.4,5c1.8,0,2.9-1.3,2.9-3.5c0-1.2-0.4-2.4-1.2-3.5 c-0.8-1-1.1-1.3-3.7-3.8c-4-3.7-5.5-6.3-5.5-9.8c0-4.8,3-7.9,7.5-7.9c4.2,0,6.7,2.6,7.2,7.7L60.6,61.2z"/>
        <path d="M82.2,85.3h-4.8v-32h6.7c6.1,0,8.3,2.4,8.3,9.4c0,7-2.2,9.4-8.3,9.4h-1.9V85.3z M83.7,67.6 c3.1,0,3.9-1,3.9-4.9c0-3.9-0.8-4.9-3.9-4.9h-1.5v9.8H83.7z"/>
        <path d="M101,85.3h-4.8v-32h6.7c5.6,0,8,2.9,8,9.3c0,4.1-0.9,6.3-3.2,8.1l3.7,14.7h-5.1l-3-13.4H101V85.3z M102.5,67.4c1.6,0,2.3-0.2,2.8-1c0.5-0.8,0.8-2.2,0.8-3.8c0-1.7-0.3-3.3-1-4c-0.5-0.7-1.1-0.9-2.6-0.9H101v9.7H102.5z"/>
        <path d="M129.8,74.9c0,4.8-0.4,6.5-1.9,8.4c-1.3,1.6-3.4,2.5-5.6,2.5c-2.3,0-4.3-1-5.6-2.5 c-1.5-1.9-1.9-3.6-1.9-8.4V63.7c0-4.7,0.4-6.5,1.9-8.4c1.3-1.6,3.4-2.5,5.6-2.5c2.2,0,4.3,1,5.6,2.5c1.5,1.9,1.9,3.6,1.9,8.4V74.9z M119.6,74.4c0,3,0.1,4.5,0.3,5.1c0.4,1.2,1.2,1.8,2.4,1.8c1.2,0,2.1-0.8,2.4-2.1c0.1-0.6,0.2-2.2,0.2-4.8V64.2 c0-3.1-0.1-4.5-0.3-5.1c-0.4-1.2-1.2-1.8-2.4-1.8c-1.2,0-2.2,0.8-2.5,2.1c-0.1,0.6-0.2,2.3-0.2,4.8V74.4z"/>
        <path d="M148.9,85.3h-2.4l-0.9-2.5c-1.3,2.2-2.7,3-5,3c-2.3,0-4.2-1-5.3-2.7c-1.1-1.8-1.4-4-1.4-8V63.9 c0-5,0.3-6.6,1.9-8.5c1.3-1.6,3.4-2.5,5.6-2.5c3.6,0,6.3,2.1,7.2,5.4c0.3,1.2,0.3,1.7,0.3,5.5H144c0-1.9,0-3.2-0.1-3.9 c-0.2-1.5-1.2-2.5-2.6-2.5c-1.2,0-2.1,0.8-2.4,2.1c-0.1,0.6-0.2,2.3-0.2,4.8v10.1c0,2.4,0.1,4.5,0.3,5.1c0.3,1.2,1.2,1.8,2.4,1.8 c1.2,0,2.2-0.8,2.4-2.1c0.1-0.7,0.2-2.2,0.2-4.8v-1.3h-2.9v-4h7.7V85.3z"/>
        <path d="M157.9,85.3h-4.8v-32h6.7c5.6,0,8,2.9,8,9.3c0,4.1-0.9,6.3-3.2,8.1l3.7,14.7h-5.1l-3-13.4h-2.3V85.3z M159.5,67.4c1.6,0,2.3-0.2,2.8-1c0.5-0.8,0.8-2.2,0.8-3.8c0-1.7-0.3-3.3-1-4c-0.5-0.7-1.1-0.9-2.6-0.9h-1.5v9.7H159.5z"/>
        <path d="M177.5,78.2l-1.1,7.1h-4.8l5.2-32h6.2l5.6,32h-4.9l-1.1-7.1H177.5z M180,61l-1.8,12.8h3.7L180,61z"/>
        <path d="M208,85.3V63.2l-4.6,22.1h-2.2l-4.8-22.1v22.1h-4.5v-32h6.4l4,19.5l3.6-19.5h6.5v32H208z"/>
    </g>
</svg>
