<svg xmlns="http://www.w3.org/2000/svg" width="125px" height="125px" x="0px" y="0px" viewBox="0 0 125 125">
    <title>Southern Tier AIDS Program Logo</title>
    <g fill="#D2242B">
        <path d="M52.3,14.2c-0.9-0.2-1.6-1-1.8-1.9l-1.6-8.7c-0.2-0.8,0.1-1.6,0.6-2.1c-3.4,0.7-6.8,1.8-10,3l5.3,12 C47.2,15.5,49.7,14.7,52.3,14.2z"/>
        <path d="M96.9,19.7l-0.6-0.5l-3.5,4.4c0.2,0.2,0.4,0.3,0.6,0.5L96.9,19.7z"/>
        <path d="M39.8,10.3l-2.2-5c-0.2,0.1-0.5,0.2-0.7,0.3l2.2,5L39.8,10.3z"/>
        <path d="M53,12.1c0.2,0,0.4-0.3,0.3-0.5L51.7,3c0-0.2-0.3-0.4-0.5-0.3c-0.2,0-0.4,0.3-0.3,0.5l1.6,8.6 C52.5,12,52.8,12.2,53,12.1z"/>
        <path d="M15.6,47.2L3.3,42.6c-1,2.9-1.8,6-2.3,9.1l13,1.8C14.4,51.3,14.9,49.2,15.6,47.2z"/>
        <path d="M5.5,41.1l3.3,1.2l0.5-1.2l1.9,0.7l-0.5,1.2l3.7,1.4l0.7-1.9l1.9,0.7c0.8-2,1.8-3.8,2.9-5.7L8.8,30.6 c-1.6,2.6-2.9,5.3-4.1,8.2l1.4,0.5L5.5,41.1z"/>
        <path d="M53.7,2.6l1.6,8.7c0.2,1-0.2,1.9-1,2.5c2.6-0.4,5.2-0.7,7.9-0.7L62.7,0c-0.1,0-0.1,0-0.2,0 C59,0,55.6,0.3,52.3,0.8C53,1.2,53.5,1.8,53.7,2.6z"/>
        <path d="M20.4,33.1l1.7,1.1c1.2-1.7,2.5-3.4,3.9-4.9L16.7,20c-2.5,2.7-4.8,5.7-6.8,8.8l9.4,6L20.4,33.1z"/>
        <path d="M20.2,19.7c-0.3-0.3-0.5-0.3-0.6-0.1l-0.2,0.2l2.8,2.8l0.2-0.2c0.2-0.2,0.1-0.4-0.1-0.6L20.2,19.7z"/>
        <path d="M21.5,18l2.4,2.4c1.2,1.2,0.8,2.5,0.1,3.2L23.6,24l3.8,3.8c0.7-0.7,1.5-1.5,2.3-2.2l-1.3-1.5l1.4-1.2 l1.3,1.5c2.8-2.3,5.8-4.3,9.1-5.9l-5.3-12C29.2,9.3,24,13,19.4,17.3C20,17.2,20.7,17.3,21.5,18z"/>
        <path d="M99.6,30l10.2-8.2c-2-2.4-4.2-4.6-6.6-6.6L95,25.4C96.7,26.8,98.2,28.3,99.6,30z"/>
        <path d="M109.9,24.3l-2.8,2.2l0.8,1l-1.6,1.3l-0.8-1l-3,2.5l1.3,1.6l-1.6,1.3c1.3,1.7,2.4,3.5,3.4,5.3l11.8-5.9 c-1.5-2.7-3.2-5.3-5-7.7l-1.2,1L109.9,24.3z"/>
        <path d="M6.1,54.5l-5.5-0.7c0,0.3-0.1,0.5-0.1,0.8L6,55.3L6.1,54.5z"/>
        <path d="M114,37.4l2.6-1.3c0.3-0.2,0.4-0.4,0.3-0.6l-0.1-0.3l-3.5,1.8l0.1,0.3C113.5,37.5,113.7,37.5,114,37.4z"/>
        <path d="M117.8,37.8l-2.9,1.5c-0.6,0.3-1.1,0.1-1.7-0.2c-0.1,0.6-0.3,1.2-0.8,1.5l-2.6,1.3 c-0.8,0.4-1.4,0.8-1.9,1.2c0.8,1.8,1.5,3.8,2,5.7l12.7-3.1c-0.9-3.3-2.1-6.5-3.6-9.6C119,36.7,118.7,37.3,117.8,37.8z"/>
        <path d="M108.7,40.1l2.7-1.3c0.3-0.1,0.4-0.4,0.3-0.6l-0.1-0.2l-5,2.5c0.1,0.3,0.3,0.6,0.4,0.8 C107.5,40.8,108.1,40.4,108.7,40.1z"/>
        <path d="M98.2,18.1l3.4-4.3c-0.2-0.2-0.4-0.3-0.6-0.5l-3.4,4.3L98.2,18.1z"/>
        <path d="M65.2,5.2l0.1-2.8c0-0.4-0.1-0.5-0.3-0.6l-0.3,0l-0.2,3.9l0.3,0C65.1,5.7,65.2,5.6,65.2,5.2z"/>
        <path d="M67.4,2.1l-0.1,3.4c-0.1,1.7-1.3,2.2-2.3,2.2l-0.5,0l-0.2,5.4c3,0.1,6,0.5,8.9,1.1l3.3-12.7 c-3.3-0.7-6.6-1.2-10-1.5C67,0.5,67.4,1.1,67.4,2.1z"/>
        <path d="M78.1,3.6l-0.9,3.5l1.3,0.3l-0.5,2l-1.3-0.3l-1,3.8l1.9,0.5l-0.5,2c0.9,0.3,1.9,0.6,2.8,1l0.7-1.8l1.8,0.7 L81.7,17c3.4,1.4,6.5,3.2,9.5,5.3L99.3,12c-5.6-4.1-12-7.3-18.8-9.4l-0.4,1.5L78.1,3.6z"/>
        <path d="M98,107.4c-0.1-0.2-0.4-0.2-0.6-0.1c-0.2,0.1-0.2,0.4-0.1,0.6l2,2.6c0.1,0.2,0.4,0.2,0.6,0.1 c0.2-0.1,0.2-0.4,0.1-0.6L98,107.4z"/>
        <path d="M32.4,117.3c0.4,0.2,0.8,0.4,1.2,0.7l2-6.7L32.4,117.3z"/>
        <path d="M97.8,111.8l-1.9-2.4c-0.3-0.4-0.5-1.2-0.1-1.8c-0.6,0.2-1.3-0.1-1.7-0.6l-1.8-2.3 c-0.7-0.8-0.7-1.9-0.2-2.8c-2.2,1.7-4.6,3.2-7.1,4.5c1-0.1,2,0.4,2.5,1.4l3.9,8c0.3,0.7,0.3,1.4,0.1,2.1c2.9-1.5,5.6-3.2,8.2-5.1 C99,112.7,98.3,112.4,97.8,111.8z"/>
        <path d="M85.7,108.7c-0.1-0.2-0.3-0.3-0.5-0.2c-0.2,0.1-0.3,0.3-0.2,0.5l1.7,3.4c0.1,0.2,0.3,0.3,0.5,0.2 c0.2-0.1,0.3-0.3,0.2-0.5L85.7,108.7z"/>
        <path d="M8.1,54.7L8,55.5l5.5,0.7c0-0.3,0.1-0.5,0.1-0.8L8.1,54.7z"/>
        <path d="M87.1,117.9l-0.6-1.3l1.8-0.9l0.6,1.2c0.1,0.2,0.3,0.3,0.5,0.2c0.2-0.1,0.3-0.3,0.2-0.5l-1.4-2.8 c-0.1,0.3-0.5,0.7-0.9,0.9c-0.8,0.4-1.8,0-2.2-0.8l-2-3.9c-0.5-1-0.3-2.1,0.4-2.8c-6.4,3-13.5,4.7-21.1,4.7 c-4.4,0-8.7-0.6-12.8-1.7c0.8,0.6,1.2,1.6,0.9,2.7l-0.8,2.7l-1.9-0.5l0.7-2.6c0.1-0.2-0.1-0.4-0.3-0.5c-0.2-0.1-0.4,0.1-0.5,0.3 l-2.4,8.4c-0.1,0.2,0.1,0.4,0.3,0.5c0.2,0.1,0.4-0.1,0.5-0.3l0.7-2.6l1.9,0.5l-0.8,2.7c-0.2,0.7-0.7,1.3-1.3,1.6 c2.8,0.7,5.7,1.3,8.6,1.6l1.1-13l4.1,0.3l-0.2,1.9l-2-0.2l-0.3,3.6l1.3,0.1l-0.2,2.1l-1.3-0.1l-0.3,3.9l2,0.2l-0.1,1.6 c1,0,2,0.1,3,0.1c5.3,0,10.4-0.7,15.3-1.9l-2.5-9.5l-1.3,0.4l-0.3-1.3c1-0.5,1.5-1.3,1.4-2.4l1.4-0.4l3.4,12.6 c3.1-0.9,6.1-2,8.9-3.3C88,119,87.5,118.6,87.1,117.9z"/>
        <path d="M94.6,103.1c-0.1-0.2-0.4-0.2-0.6-0.1c-0.2,0.1-0.2,0.4-0.1,0.6l1.9,2.4c0.1,0.2,0.4,0.2,0.6,0.1 c0.2-0.1,0.2-0.4,0.1-0.6L94.6,103.1z"/>
        <polygon points="106.7,100.9 107.1,100.3 105.2,98.6"/>
        <path d="M106.8,103.6l-1.2-1l-5.2-8.3l1.1-1.3l6.9,5.9l0.4-0.5l1.4,1.2l-0.4,0.5l1.6,1.3 c8.5-10.7,13.6-24.2,13.6-38.9c0-4.4-0.5-8.8-1.4-12.9l-1.5,0.4l-0.5-1.9l-3.5,0.9l0.3,1.3l-2,0.5l-0.3-1.3l-3.8,0.9l0.5,1.9 l-2,0.5c0.2,1,0.4,1.9,0.5,2.9l2-0.2l0.2,1.9l-1.9,0.2c0.2,1.6,0.2,3.3,0.2,5c0,15.5-7.2,29.4-18.4,38.4c0.9-0.3,2,0,2.7,0.9 l1.8,2.3c0.3,0.4,0.5,1.2,0.1,1.8c0.6-0.2,1.3,0.1,1.7,0.6l1.9,2.4c0.5,0.6,0.6,1.3,0.5,2c2.9-2.4,5.6-5.1,8.1-8l-1.6-1.4 L106.8,103.6z"/>
        <path d="M43.6,120.1l2.4-8.5c0.3-1,1.2-1.7,2.2-1.8c-8.8-2.7-16.5-7.7-22.5-14.4c0.4,0.9,0.1,2-0.7,2.7l-1.5,1.3 l-1.2-1.4l1.4-1.2c0.3-0.3,0.3-0.5,0.2-0.7c-0.2-0.2-0.5-0.3-0.8,0c-1,0.9-1.5,1.9-2.1,3.6c-0.6,1.5-1.1,3.2-2.1,4 c-0.8,0.7-1.7,1-2.5,0.9c2,2.2,4.1,4.2,6.4,6.1l8.2-10.2l1.6,1.3l-8.2,10.2c2.1,1.7,4.4,3.2,6.7,4.6l6.1-11.5l2.1,1.1l-2.4,7 l3.4-6.5l1.5,0.8l-6.1,11.5c2.7,1.3,5.4,2.4,8.2,3.2C43.5,121.6,43.3,120.8,43.6,120.1z"/>
        <path d="M14.9,100.1l1.5-1.3l1.2,1.4l-1.3,1.2c-0.3,0.2-0.4,0.6-0.1,0.9c0.3,0.3,0.6,0.3,0.9,0 c0.9-0.8,1.3-2.2,1.9-3.6c0.6-1.5,1.2-3,2.3-3.9c1.1-1,2.3-1.3,3.3-0.7c-7.2-8.6-11.5-19.6-11.5-31.6c0-1.4,0.1-2.8,0.2-4.2 l-13-1.8C0.1,58.5,0,60.5,0,62.5c0,15,5.3,28.7,14.1,39.5C14.1,101.3,14.4,100.6,14.9,100.1z"/>
        <path d="M40.6,12.1l-0.7,0.3l2.3,5.1c0.2-0.1,0.5-0.2,0.7-0.3L40.6,12.1z"/>
    </g>
        <path fill="#D2242B" d="M76.8,71.7l-3.9-18.2c0,0,1.9-11.1,1.4-15.3c-0.5-4.2-3.4-4.3-4.9-4.1c-0.7,0.1-2.4,0.7-3.1,2.2 c-0.7,1.7-0.5,4.2-0.3,5.8c0.4,2.9,1.7,9.9,1.7,9.9l-4.5,20.6c-0.1,0.6-0.3,1.3-1.8,8.2c0,0-0.7,2.6-2.4,4.1 c-1.7,1.5-4.1,2.2-4.1,2.2s5.2-0.4,6.9-1.5c1.7-1.1,2.9-4,2.9-4s2.1-7.4,2.2-7.9l0.3-1h5l0,0.3c0,0.2,0.9,4,1.9,8.3l4.6-1.4 C77.2,73.6,76.9,72.6,76.8,71.7z M70.3,35c0.5-0.1,1.3,0,1.8,0.5c0.8,0.9,0.4,3.5,0.1,4.9c-0.2,1.3-1.4,7.3-1.4,7.3 s-1.6-8.6-1.6-10.2C69.4,35.8,69.8,35.2,70.3,35z M67.9,70.2l0.4-3l1.7-6.9l1.2,6.9l0.5,2.6l0.1,0.4H67.9z"/>
        <path fill="#D2242B" d="M13.1,62.5c0,27.2,22.2,49.4,49.4,49.4c27.2,0,49.4-22.2,49.4-49.4c0-27.2-22.2-49.4-49.4-49.4 C35.3,13.1,13.1,35.3,13.1,62.5z M14.8,62.5c0-26.3,21.4-47.7,47.7-47.7c26.3,0,47.7,21.4,47.7,47.7s-21.4,47.7-47.7,47.7 C36.2,110.2,14.8,88.8,14.8,62.5z"/>
        <path fill="#D2242B" d="M40.1,62.2C37,59.9,35,58.9,35,56.8c0-1.5,1.1-2.6,2.7-2.6c2.7,0,4.5,2.4,5,7h2.2v-9.2h-1.9l-0.7,1.5 c-1.3-1.4-3-2.1-4.9-2.1c-3.4,0-6.1,2.9-6.1,6.9c0,2.1,0.8,3.8,2.3,5.5c1.1,1.2,3.1,2.4,5.5,4.3c1.9,1.6,2.9,3.1,2.9,4.7 c0,1.8-1.1,2.9-2.9,2.9c-3,0-5-3-5.3-8.6h-2.3v4.6c0,0,1.6,3.1,2.8,4.6c1.2,1.5,3.2,2.3,5.3,2.3c3.8,0,6.4-2.9,6.4-7.2 C45.9,66.8,43.8,64.8,40.1,62.2z"/>
        <path fill="#D2242B" d="M52.7,77.9V54.4h-0.8c-2.1,0-2.8,1.4-2.8,4.5v2.8h-2.2v-9.7H63v9.7h-2.2v-2.8c0-3.1-0.8-4.5-2.8-4.5h-0.8 v23.5H52.7z"/>
        <path fill="#D2242B" d="M87.4,66.4c5.3,0,7.6-1.9,7.6-6.9c0-5.2-2.5-7.3-8.2-7.3h-7.6v2.6c1.4,0,1.9,0.5,1.9,1.9v21.4h6.7v-2.6 c0,0-0.1,0-0.2,0c-1.5,0-1.9-0.5-1.9-1.9v-7.1C86.7,66.4,87.3,66.4,87.4,66.4z M85.8,54.6h1.3c2.7,0,3.6,1,3.6,4.6 c0,3.3-0.9,4.5-3.7,4.5h-1.2V54.6z"/>
    <g fill="#D2242B">
        <path d="M23.3,54.2c-0.2,0.9-0.7,1.6-1.4,1.9l-0.5-0.9c0.5-0.3,0.8-0.7,0.9-1.3c0.1-0.6,0-1-0.4-1.1 c-0.4-0.1-0.5,0.1-1,1.1c-0.4,1-0.9,1.6-2,1.4c-1-0.2-1.4-1.2-1.2-2.3c0.2-0.9,0.6-1.4,1.3-1.8l0.6,1c-0.4,0.3-0.7,0.6-0.8,1.1 c-0.1,0.6,0.1,0.8,0.3,0.9c0.3,0.1,0.5-0.1,0.9-1c0.4-0.8,0.9-1.7,2.1-1.5C23.1,51.9,23.7,52.7,23.3,54.2z"/>
        <path d="M26.4,45.2c-0.7,1.4-2.1,1.7-3.7,0.9c-1.5-0.7-2.2-2.1-1.6-3.4c0.7-1.4,2.1-1.7,3.7-0.9 C26.4,42.5,27,43.9,26.4,45.2z M22.2,43.2c-0.4,0.8,0.1,1.5,1,1.9c0.9,0.4,1.8,0.4,2.2-0.4c0.4-0.8-0.1-1.5-1-1.9 C23.4,42.4,22.6,42.4,22.2,43.2z"/>
        <path d="M31.6,37c-0.9,1-2.1,1.2-3.4,0.1l-2.4-2l0.7-0.9l2.4,2c0.7,0.6,1.4,0.6,1.9,0.1c0.5-0.5,0.3-1.2-0.4-1.8 l-2.4-2l0.7-0.9l2.4,2C32.4,34.7,32.5,35.9,31.6,37z"/>
        <path d="M36.1,26.5l2.7,3.6L38,30.8l-2.7-3.6l-1.3,1l-0.7-0.9l3.5-2.6l0.7,0.9L36.1,26.5z"/>
        <path d="M47.7,25.2L46.7,23L44.6,24l0.9,2.2l-1,0.4l-2.2-5.1l1-0.4l0.8,2l2.1-0.9l-0.9-2l1-0.4l2.2,5.1 L47.7,25.2z"/>
        <path d="M53.9,23.3L53,17.7l3.8-0.6l0.2,1.1l-2.7,0.5l0.2,1l1.6-0.3l0.2,1.1l-1.6,0.3l0.2,1.3l2.8-0.5l0.2,1.1 L53.9,23.3z"/>
        <path d="M66.3,22.6l-0.9-2.1l-1.1-0.1l-0.1,2l-1.1-0.1l0.4-5.6l2.6,0.2c1.1,0.1,1.9,0.7,1.8,1.9 c-0.1,0.8-0.4,1.3-1.2,1.6l0.9,2.2L66.3,22.6z M65.9,18l-1.5-0.1l-0.1,1.4l1.5,0.1c0.5,0,0.8-0.2,0.8-0.7 C66.7,18.3,66.4,18,65.9,18z"/>
        <path d="M76,24.7l-1-3.5c-0.1-0.2-0.2-0.6-0.2-0.7c-0.1,0.2-0.3,0.9-0.4,1.2L73.7,24l-1.1-0.3l1.7-5.3l1,0.3 l1,3.4c0.1,0.2,0.2,0.6,0.2,0.7c0.1-0.2,0.3-0.9,0.4-1.2l0.7-2.3l1.1,0.3L77,25L76,24.7z"/>
        <path d="M91.9,29L89,32.4l-0.8-0.7l2.9-3.4l-1.2-1l0.7-0.8l3.3,2.8L93.1,30L91.9,29z"/>
        <path d="M93.7,37.3l4.4-3.5l0.7,0.9l-4.4,3.5L93.7,37.3z"/>
        <path d="M97.5,42.7l5-2.5l1.8,3.5l-1,0.5l-1.3-2.5l-0.9,0.4l0.7,1.4l-1,0.5l-0.7-1.4l-1.2,0.6l1.3,2.6l-1,0.5 L97.5,42.7z"/>
        <path d="M101.8,54.3l1.7-1.4l-0.3-1.1l-2,0.5l-0.3-1.1l5.4-1.3l0.6,2.5c0.2,1-0.1,2-1.3,2.3 c-0.8,0.2-1.4,0-1.9-0.7l-1.9,1.5L101.8,54.3z M106,52.7l-0.3-1.4l-1.4,0.3l0.3,1.4c0.1,0.5,0.4,0.7,0.9,0.6 C106,53.5,106.1,53.1,106,52.7z"/>
    </g>
    <g fill="#D2242B">
        <path d="M18.7,69.6c-0.1-0.8,0.4-1.5,1.2-1.6c0.8-0.1,1.5,0.4,1.7,1.2c0.1,0.8-0.4,1.5-1.2,1.7 C19.5,70.9,18.8,70.4,18.7,69.6z"/>
        <path d="M22.2,84.4l0.9-1l-0.9-1.8l-1.3,0.2l-0.5-1.1l6-0.6l0.5,1l-4,4.4L22.2,84.4z M24.6,81.9 c0.2-0.2,0.5-0.5,0.7-0.6c-0.2,0-0.6,0.1-0.9,0.1l-1.1,0.1l0.6,1.1L24.6,81.9z"/>
        <path d="M25.6,89.8l4.5-3.4l0.7,0.9l-4.5,3.4L25.6,89.8z"/>
        <path d="M31.1,96l-1.2-1.1l3.8-4.1l1.3,1.2c1.2,1.1,1.5,2.4,0.2,3.9C33.8,97.3,32.2,96.9,31.1,96z M34.2,92.7 l-0.4-0.4l-2.3,2.5l0.4,0.4c0.9,0.8,1.7,0.7,2.4-0.1C35.1,94.2,35.1,93.5,34.2,92.7z"/>
        <path d="M38.9,101.9c-0.8-0.5-1.3-1.2-1.3-2l1.1-0.2c0.1,0.6,0.4,1,0.9,1.3c0.6,0.3,0.9,0.3,1.2,0 c0.2-0.3,0.1-0.5-0.7-1.3c-0.8-0.7-1.2-1.4-0.6-2.3c0.5-0.9,1.6-0.9,2.6-0.4c0.7,0.4,1.1,1.1,1.3,1.8l-1.1,0.3 c-0.1-0.5-0.4-0.9-0.8-1.1c-0.5-0.3-0.8-0.2-0.9,0c-0.2,0.3,0,0.5,0.6,1.2c0.7,0.6,1.3,1.4,0.7,2.4 C41.2,102.5,40.2,102.7,38.9,101.9z"/>
        <path d="M54.3,105.6l-1.2-0.2l-0.4,1.9l-1.1-0.2l1.1-5.5l2.4,0.5c1,0.2,1.8,0.9,1.5,2.1 C56.4,105.5,55.4,105.8,54.3,105.6z M54.8,103.1l-1.3-0.2l-0.3,1.4l1.3,0.3c0.5,0.1,0.8-0.1,0.9-0.6 C55.6,103.5,55.3,103.2,54.8,103.1z"/>
        <path d="M64.1,108.3l-1-2l-1.1,0l0,2l-1.1,0l-0.1-5.6l2.6,0c1.1,0,1.9,0.6,2,1.7c0,0.8-0.3,1.4-1,1.7l1.1,2.2 L64.1,108.3z M63.4,103.8l-1.5,0l0,1.4l1.5,0c0.5,0,0.8-0.3,0.8-0.7C64.2,104,63.9,103.8,63.4,103.8z"/>
        <path d="M72.7,107.3c-1.5,0.3-2.6-0.6-3-2.3c-0.4-1.7,0.2-3,1.7-3.4c1.5-0.3,2.6,0.6,3,2.3 C74.8,105.6,74.2,107,72.7,107.3z M71.6,102.8c-0.9,0.2-1.1,1-0.9,2c0.2,1,0.8,1.6,1.6,1.4c0.9-0.2,1.1-1,0.9-2 C73.1,103.3,72.5,102.6,71.6,102.8z"/>
        <path d="M81.9,104.2c-1.3,0.6-2.7,0-3.4-1.6c-0.7-1.5-0.3-3.1,1-3.7c1-0.5,1.8-0.3,2.5,0.4l-0.8,0.8 c-0.4-0.3-0.7-0.5-1.3-0.2c-0.8,0.4-0.9,1.2-0.4,2.2c0.4,0.9,1.2,1.4,2,1.1c0.7-0.3,0.8-0.8,0.6-1.2l-0.8,0.4l-0.4-1l1.8-0.8 l0.3,0.7C83.6,102.5,83.1,103.6,81.9,104.2z"/>
        <path d="M90.9,98.5l-2-1L88,98.2l1.2,1.6l-0.9,0.7L85,96l2.1-1.6c0.8-0.6,1.9-0.7,2.6,0.3c0.5,0.7,0.5,1.3,0.1,2 l2.2,1.1L90.9,98.5z M87.7,95.3l-1.2,0.9l0.9,1.2l1.2-0.9c0.4-0.3,0.5-0.7,0.2-1.1C88.4,95,88.1,95,87.7,95.3z"/>
        <path d="M98.1,91.5L96.9,91l-1.3,1.5l0.7,1.2l-0.8,0.9l-2.8-5.3l0.7-0.8l5.6,2.1L98.1,91.5z M94.8,90.2 c-0.3-0.1-0.6-0.3-0.8-0.4c0.1,0.2,0.3,0.5,0.5,0.8l0.5,0.9l0.8-1L94.8,90.2z"/>
        <path d="M103.7,82.7l-1.8-1c-0.3-0.1-0.9-0.5-1.1-0.6c0.1,0.2,0.4,0.5,0.6,0.8l1.7,2.2l-2.7-0.2 c-0.3,0-0.8-0.1-1-0.1c0.2,0.1,0.8,0.4,1.1,0.6l1.8,1l-0.5,1l-4.9-2.6l0.5-1l2.8,0.2c0.3,0,0.8,0.1,1,0.1 c-0.2-0.2-0.4-0.5-0.6-0.8l-1.7-2.2l0.5-1l4.9,2.6L103.7,82.7z"/>
        <path d="M106.4,69.1c-0.1,0.8-0.8,1.3-1.6,1.2c-0.8-0.1-1.3-0.8-1.2-1.6c0.1-0.8,0.9-1.3,1.7-1.2 C106,67.6,106.5,68.3,106.4,69.1z"/>
  </g>
  <path fill="#D2242B" d="M24.5,62.5c0,21,17.1,38,38,38c21,0,38-17.1,38-38c0-21-17.1-38-38-38C41.5,24.5,24.5,41.5,24.5,62.5z M25.4,62.5C25.4,42,42,25.4,62.5,25.4C83,25.4,99.6,42,99.6,62.5C99.6,83,83,99.6,62.5,99.6C42,99.6,25.4,83,25.4,62.5z"/>
</svg>
